STARTFONT 2.1
COMMENT CVS:Version $Id 1.6
COMMENT
COMMENT (C) CENA/J.L. Vinot, 2002, CENA (Centre d'Etudes de la Navigation Aérienne)
COMMENT This software is free software; you can redistribute it and/or modify it 
COMMENT under the terms of the GNU Lesser General Public License as published by the Free Software Foundation: 
COMMENT either version 2 of the License, or (at your option) any later version.
COMMENT 
COMMENT This software is distributed in the hope that it will be useful, but WITHOUT ANY WARRANTY; 
COMMENT without even the implied warranty of MERCHANTABILITY or FITNESS FOR A PARTICULAR PURPOSE.  
COMMENT See the GNU Lesser General Public License for more details.
COMMENT 
COMMENT You should have received a copy of the GNU Lesser General Public License along with this software; 
COMMENT if not, write to the Free Software Foundation, Inc., 59 Temple Place - Suite 330, Boston, MA  02111-1307, USA.
COMMENT Please refer to http://www.gnu.org/copyleft/gpl.html
COMMENT 
COMMENT This font has been originally designed by CENA/France for the specific needs of Air Traffic Control. 
COMMENT For example, it must offer good legibility and avoid any confusion between character shapes. 
COMMENT CENA would like to preserve its qualities. If you have any specific need, you can modify this font, 
COMMENT but we would like you to change its name to avoid any confusion between your new font and the original one designed by CENA.
COMMENT Note however, that as implied in the LGPL licence, you must credit CENA for the original work. 
COMMENT Finally, CENA would appreciate it if you send back any enhancement or extension made to the original work. 
COMMENT This statement must be fully included with any further distribution of the font.
COMMENT 
COMMENT to contact us: email to:  pii-contact@cena.fr
COMMENT write to: CENA, 7 avenue Edouard Belin, 31400 Toulouse, France 
FONT -CenaPii-Bleriot Radar-Medium-R-Normal--40-400-75-75-P-227-ISO8859-15
SIZE 40 72 72

STARTCHAR gcid14
ENCODING 20
SWIDTH 600 0
DWIDTH 24 0
BBX 20 4 2 12
BITMAP
FFFFF0
FFFFF0
FFFFF0
FFFFF0
ENDCHAR
STARTCHAR gcid15
ENCODING 21
SWIDTH 650 0
DWIDTH 26 0
BBX 23 23 2 4
BITMAP
300000
780000
FC0000
FE0000
7F0000
3F8000
1FC002
0FE006
07F00E
03F81E
01FC3E
00FE7E
007FFE
003FFE
001FFE
000FFE
000FFE
001FFE
003FFE
007FFE
00FFFE
01FFFE
03FFFE
ENDCHAR
STARTCHAR gcid16
ENCODING 22
SWIDTH 650 0
DWIDTH 26 0
BBX 23 23 2 -1
BITMAP
03FFFE
01FFFE
00FFFE
007FFE
003FFE
001FFE
000FFE
000FFE
001FFE
003FFE
007FFE
00FE7E
01FC3E
03F81E
07F00E
0FE006
1FC002
3F8000
7F0000
FE0000
FC0000
780000
300000
ENDCHAR
STARTCHAR space
ENCODING 32
SWIDTH 650 0
DWIDTH 26 0
BBX 0 0 0 0
BITMAP
ENDCHAR
STARTCHAR exclam
ENCODING 33
SWIDTH 300 0
DWIDTH 12 0
BBX 4 28 4 0
BITMAP
F0
F0
F0
F0
F0
F0
F0
F0
F0
F0
F0
F0
F0
F0
F0
F0
F0
F0
F0
F0
00
00
00
00
F0
F0
F0
F0
ENDCHAR
STARTCHAR quotedbl
ENCODING 34
SWIDTH 400 0
DWIDTH 16 0
BBX 10 8 4 20
BITMAP
F3C0
F3C0
F3C0
F3C0
E380
E380
E380
E380
ENDCHAR
STARTCHAR numbersign
ENCODING 35
SWIDTH 650 0
DWIDTH 26 0
BBX 24 22 2 2
BITMAP
007878
007878
007878
00F0F0
0FFFFF
0FFFFF
1FFFFE
1FFFFE
01E1E0
01E1E0
01E1E0
03C3C0
03C3C0
03C3C0
7FFFFC
7FFFFC
FFFFF8
FFFFF8
0F0780
0F0780
1E0F00
1E0F00
ENDCHAR
STARTCHAR dollar
ENCODING 36
SWIDTH 600 0
DWIDTH 24 0
BBX 19 36 4 -4
BITMAP
01B000
01B000
01B000
01F000
07FE00
1FFF80
3FFFC0
7FFFC0
7DB3C0
F9B1C0
F1B0C0
F1B040
F9B000
FDB000
7FB000
7FF000
3FF800
1FFC00
07FF00
03FF80
01FFC0
01BFC0
01B7E0
01B3E0
81B1E0
C1B1E0
E1B3E0
F9B7C0
FFFFC0
FFFF80
3FFF00
0FFC00
01F000
01B000
01B000
01B000
ENDCHAR
STARTCHAR percent
ENCODING 37
SWIDTH 750 0
DWIDTH 30 0
BBX 28 28 1 0
BITMAP
0F001E00
3FC03E00
79E03C00
70E07C00
F0F07800
F0F0F800
F0F0F000
F0F1F000
70E1E000
79E3E000
3FC3C000
0F07C000
00078000
000F8000
000F0000
001F0000
001E0F00
003E3FC0
003C79E0
007C70E0
0078F0F0
00F8F0F0
00F0F0F0
01F0F0F0
01E070E0
03E079E0
03C03FC0
07C00F00
ENDCHAR
STARTCHAR ampersand
ENCODING 38
SWIDTH 750 0
DWIDTH 30 0
BBX 26 29 4 -1
BITMAP
03F00000
0FFC0000
1FFE0000
3F3E0000
3C0F0000
780F0000
780F0000
781E0000
7C3E0000
3E7C0000
3FF80000
1FF00000
0FE00000
0FE00000
1FF00000
3FF80000
7CFC0000
787E0800
F83F1C00
F01FBE00
F00FFE00
F007FC00
F003F800
F807F800
7C1FFC00
7FFFFE00
3FFF3F00
1FFC1F80
07F00FC0
ENDCHAR
STARTCHAR quotesingle
ENCODING 39
SWIDTH 250 0
DWIDTH 10 0
BBX 4 8 4 20
BITMAP
F0
F0
F0
F0
E0
E0
E0
E0
ENDCHAR
STARTCHAR parenleft
ENCODING 40
SWIDTH 450 0
DWIDTH 18 0
BBX 11 36 4 -6
BITMAP
00E0
01C0
0380
0700
0F00
1E00
1C00
3C00
3800
7800
7800
7000
F000
F000
F000
F000
F000
F000
F000
F000
F000
F000
F000
F000
7000
7800
7800
3800
3C00
1C00
1E00
0F00
0700
0380
01C0
00E0
ENDCHAR
STARTCHAR parenright
ENCODING 41
SWIDTH 450 0
DWIDTH 18 0
BBX 11 36 4 -6
BITMAP
E000
7000
3800
1C00
1E00
0F00
0700
0780
0380
03C0
03C0
01C0
01E0
01E0
01E0
01E0
01E0
01E0
01E0
01E0
01E0
01E0
01E0
01E0
01C0
03C0
03C0
0380
0780
0700
0F00
1E00
1C00
3800
7000
E000
ENDCHAR
STARTCHAR asterisk
ENCODING 42
SWIDTH 500 0
DWIDTH 20 0
BBX 17 17 2 13
BITMAP
01C000
01C000
21C200
71C700
F9CF80
7DDF00
1FFC00
0FF800
07F000
0FF800
1FFC00
7DDF00
F9CF80
71C700
21C200
01C000
01C000
ENDCHAR
STARTCHAR plus
ENCODING 43
SWIDTH 600 0
DWIDTH 24 0
BBX 20 20 2 0
BITMAP
00F000
00F000
00F000
00F000
00F000
00F000
00F000
00F000
FFFFF0
FFFFF0
FFFFF0
FFFFF0
00F000
00F000
00F000
00F000
00F000
00F000
00F000
00F000
ENDCHAR
STARTCHAR comma
ENCODING 44
SWIDTH 400 0
DWIDTH 16 0
BBX 9 11 3 -6
BITMAP
1F80
1F00
1F00
3E00
3E00
3C00
7C00
7800
7800
F000
F000
ENDCHAR
STARTCHAR hyphen
ENCODING 45
SWIDTH 550 0
DWIDTH 22 0
BBX 14 4 4 8
BITMAP
FFFC
FFFC
FFFC
FFFC
ENDCHAR
STARTCHAR period
ENCODING 46
SWIDTH 400 0
DWIDTH 16 0
BBX 5 5 4 0
BITMAP
F8
F8
F8
F8
F8
ENDCHAR
STARTCHAR slash
ENCODING 47
SWIDTH 525 0
DWIDTH 21 0
BBX 21 34 0 -4
BITMAP
0000F8
0000F0
0001F0
0001E0
0003E0
0003C0
0007C0
000780
000F80
000F00
001F00
001E00
003E00
003C00
007C00
007800
00F800
00F000
01F000
01E000
03E000
03C000
07C000
078000
0F8000
0F0000
1F0000
1E0000
3E0000
3C0000
7C0000
780000
F80000
F00000
ENDCHAR
STARTCHAR zero
ENCODING 48
SWIDTH 650 0
DWIDTH 26 0
BBX 22 29 4 -1
BITMAP
01FE00
07FF80
0FFFC0
1FFFE0
3F03F0
3E01F0
7C00F8
780078
780F78
F80E7C
F01E3C
F01C3C
F03C3C
F0383C
F0783C
F0703C
F0F03C
F0E03C
F1E03C
F9C07C
7BC078
780078
7C00F8
3E01F0
3F03F0
1FFFE0
0FFFC0
07FF80
01FE00
ENDCHAR
STARTCHAR one
ENCODING 49
SWIDTH 550 0
DWIDTH 22 0
BBX 15 29 4 0
BITMAP
000E
001E
003E
007E
00FE
01FE
03FE
07FE
0FDE
1F9E
3F1E
7E1E
FC1E
781E
301E
001E
001E
001E
001E
001E
001E
001E
001E
001E
001E
001E
001E
001E
001E
ENDCHAR
STARTCHAR two
ENCODING 50
SWIDTH 625 0
DWIDTH 25 0
BBX 21 29 4 0
BITMAP
01FC00
07FF00
1FFF80
3FFFC0
7F07C0
FC03E0
F801E0
7001E0
2001E0
0001E0
0001E0
0003E0
0003C0
0007C0
000F80
001F80
003F00
007E00
00FC00
01F800
03F000
07E000
0FC000
1F8000
3F0000
7FFFF8
FFFFF8
FFFFF8
FFFFF8
ENDCHAR
STARTCHAR three
ENCODING 51
SWIDTH 625 0
DWIDTH 25 0
BBX 22 29 2 -1
BITMAP
3FFFF8
3FFFF8
3FFFF0
3FFFE0
0007C0
000F80
001F00
003E00
007C00
00F800
01F800
03FF00
03FFC0
03FFE0
000FF0
0001F8
0000F8
00007C
00003C
00003C
00003C
30003C
78007C
FC00F8
7F03F8
3FFFF0
1FFFE0
07FF80
01FE00
ENDCHAR
STARTCHAR four
ENCODING 52
SWIDTH 625 0
DWIDTH 25 0
BBX 23 29 2 -1
BITMAP
003E00
003E00
007C00
007C00
00F800
00F800
01F000
01F000
03E000
03E060
07C1E0
07C1E0
0F81E0
0F81E0
1F01E0
1F01E0
3E01E0
3E01E0
7C01E0
7FFFFE
FFFFFE
FFFFFE
FFFFFE
0001E0
0001E0
0001E0
0001E0
0001E0
0001E0
ENDCHAR
STARTCHAR five
ENCODING 53
SWIDTH 625 0
DWIDTH 25 0
BBX 22 29 3 -1
BITMAP
0FFFE0
0FFFE0
0FFFE0
0FFFE0
0F0000
0F0000
0F0000
0F0000
0F0000
0F0000
0FF800
0FFF00
0FFFC0
0FFFE0
000FF0
0001F8
0000F8
00007C
00003C
00003C
00003C
30003C
78007C
FC00F8
7F03F8
3FFFF0
1FFFE0
07FF80
01FE00
ENDCHAR
STARTCHAR six
ENCODING 54
SWIDTH 625 0
DWIDTH 25 0
BBX 22 29 4 -1
BITMAP
003F00
007E00
00FC00
01F800
03F000
07E000
07C000
0F8000
1F0000
1E0000
3E7F80
3DFFE0
7FFFF0
7FFFF8
7F81F8
FE007C
F8007C
F8003C
F0003C
F0003C
F0003C
F8007C
780078
7C00F8
7F03F0
3FFFF0
1FFFE0
0FFF80
03FE00
ENDCHAR
STARTCHAR seven
ENCODING 55
SWIDTH 625 0
DWIDTH 25 0
BBX 21 28 2 0
BITMAP
FFFFF8
FFFFF8
FFFFF0
FFFFF0
0001E0
0003C0
0007C0
000780
000F80
000F00
001F00
001E00
003E00
003C00
007C00
007800
007800
00F800
00F000
00F000
01F000
01E000
01E000
01E000
03E000
03C000
03C000
03C000
ENDCHAR
STARTCHAR eight
ENCODING 56
SWIDTH 625 0
DWIDTH 25 0
BBX 20 29 5 -1
BITMAP
00FC00
03FF00
0FFF80
1FFFC0
1F07C0
3E03E0
3C01E0
3C01E0
3E03E0
3F03C0
1FCFC0
0FFF80
07FF00
07FE00
1FFF00
3FFF80
7E1FC0
7C07E0
F803E0
F001F0
F000F0
F000F0
F800F0
7C01F0
7F07E0
3FFFC0
1FFFC0
07FF00
01FC00
ENDCHAR
STARTCHAR nine
ENCODING 57
SWIDTH 625 0
DWIDTH 25 0
BBX 21 29 4 0
BITMAP
01FE00
07FF80
1FFFC0
3FFFE0
7F07F0
7C01F0
F800F0
F800F8
F00078
F00078
F00078
F000F8
F800F8
F803F8
7E0FF0
7FFFF0
3FFFF0
1FFDE0
07F3E0
0003C0
0007C0
000F80
001F00
003F00
007E00
00FC00
01F800
03F000
07E000
ENDCHAR
STARTCHAR colon
ENCODING 58
SWIDTH 400 0
DWIDTH 16 0
BBX 5 21 4 0
BITMAP
F8
F8
F8
F8
F8
00
00
00
00
00
00
00
00
00
00
00
F8
F8
F8
F8
F8
ENDCHAR
STARTCHAR semicolon
ENCODING 59
SWIDTH 400 0
DWIDTH 16 0
BBX 9 27 0 -6
BITMAP
0F80
0F80
0F80
0F80
0F80
0000
0000
0000
0000
0000
0000
0000
0000
0000
0000
0000
1F80
1F00
1F00
3E00
3E00
3C00
7C00
7800
7800
F000
F000
ENDCHAR
STARTCHAR less
ENCODING 60
SWIDTH 450 0
DWIDTH 18 0
BBX 14 20 2 0
BITMAP
007C
00F8
01F0
03E0
07C0
0F80
1F00
3E00
7C00
F800
F800
7C00
3E00
1F00
0F80
07C0
03E0
01F0
00F8
007C
ENDCHAR
STARTCHAR equal
ENCODING 61
SWIDTH 500 0
DWIDTH 20 0
BBX 16 14 2 4
BITMAP
FFFF
FFFF
FFFF
FFFF
0000
0000
0000
0000
0000
0000
FFFF
FFFF
FFFF
FFFF
ENDCHAR
STARTCHAR greater
ENCODING 62
SWIDTH 450 0
DWIDTH 18 0
BBX 14 20 3 0
BITMAP
F800
7C00
3E00
1F00
0F80
07C0
03E0
01F0
00F8
007C
007C
00F8
01F0
03E0
07C0
0F80
1F00
3E00
7C00
F800
ENDCHAR
STARTCHAR question
ENCODING 63
SWIDTH 525 0
DWIDTH 21 0
BBX 19 29 2 0
BITMAP
03F800
0FFE00
1FFF00
3FFF80
7E0FC0
7803C0
F803E0
F001E0
F001E0
0003E0
0003C0
0007C0
000F80
001F00
003E00
007C00
00F800
00F000
01F000
01F000
01F000
000000
000000
000000
01F000
01F000
01F000
01F000
01F000
ENDCHAR
STARTCHAR at
ENCODING 64
SWIDTH 950 0
DWIDTH 38 0
BBX 36 35 2 -5
BITMAP
0003FE0000
001FFFC000
007FFFF000
01FE03FC00
03F0007E00
07C0001F00
0F80000F80
1F00000780
3E000003C0
3C007F83C0
7C01FF81E0
7807FF81E0
780FFF81E0
F01F8780F0
F03E0780F0
F03C0780F0
F03C0780F0
F0780780F0
F0780780F0
F0780780F0
F0780780F0
F0780780F0
F07C0F81E0
783E1F81E0
783FFFC3C0
7C1FFBC7C0
3C0FF3FF80
1E03C1FF00
1F00007C00
0F80000000
07C0000000
03F0007000
00FC03E000
007FFF8000
000FFC0000
ENDCHAR
STARTCHAR A
ENCODING 65
SWIDTH 750 0
DWIDTH 30 0
BBX 27 28 2 0
BITMAP
001F0000
001F0000
003F8000
003F8000
007FC000
007BC000
007BC000
00F1E000
00F1E000
01E0F000
01E0F000
03C07800
03C07800
03C07800
07803C00
07803C00
0F001E00
0F001E00
1FFFFF00
1FFFFF00
1FFFFF00
3FFFFF80
3C000780
780003C0
780003C0
F80001E0
F00001E0
F00001E0
ENDCHAR
STARTCHAR B
ENCODING 66
SWIDTH 600 0
DWIDTH 24 0
BBX 19 28 4 0
BITMAP
FFF000
FFFC00
FFFE00
FFFF00
F01F00
F00F80
F00780
F00780
F00780
F00F80
F01F00
FFFF00
FFFE00
FFFF00
FFFF80
F00FC0
F003C0
F003E0
F001E0
F001E0
F001E0
F001E0
F003E0
F007C0
FFFFC0
FFFF80
FFFF00
FFFC00
ENDCHAR
STARTCHAR C
ENCODING 67
SWIDTH 650 0
DWIDTH 26 0
BBX 22 29 4 -1
BITMAP
003FC0
00FFF0
03FFFC
07FFF8
0FE078
1F8010
3F0000
3E0000
7C0000
780000
F80000
F00000
F00000
F00000
F00000
F00000
F00000
F00000
F80000
780000
7C0000
3E0000
3F0000
1F8010
0FE078
07FFF8
03FFFC
00FFF0
003FC0
ENDCHAR
STARTCHAR D
ENCODING 68
SWIDTH 700 0
DWIDTH 28 0
BBX 23 28 4 0
BITMAP
FFF000
FFFE00
FFFF80
FFFFC0
F01FE0
F003F0
F001F8
F000F8
F0007C
F0003C
F0003E
F0001E
F0001E
F0001E
F0001E
F0001E
F0001E
F0003E
F0003C
F0007C
F000F8
F001F8
F003F0
F01FE0
FFFFC0
FFFF80
FFFE00
FFF000
ENDCHAR
STARTCHAR E
ENCODING 69
SWIDTH 550 0
DWIDTH 22 0
BBX 18 28 4 0
BITMAP
FFFF00
FFFF00
FFFF00
FFFF00
F00000
F00000
F00000
F00000
F00000
F00000
F00000
F00000
FFFC00
FFFC00
FFFC00
FFFC00
F00000
F00000
F00000
F00000
F00000
F00000
F00000
F00000
FFFFC0
FFFFC0
FFFFC0
FFFFC0
ENDCHAR
STARTCHAR F
ENCODING 70
SWIDTH 500 0
DWIDTH 20 0
BBX 16 28 4 0
BITMAP
FFFF
FFFF
FFFF
FFFF
F000
F000
F000
F000
F000
F000
F000
F000
FFFC
FFFC
FFFC
FFFC
F000
F000
F000
F000
F000
F000
F000
F000
F000
F000
F000
F000
ENDCHAR
STARTCHAR G
ENCODING 71
SWIDTH 775 0
DWIDTH 31 0
BBX 25 29 3 -1
BITMAP
003FF000
00FFFC00
03FFFF00
07FFFE00
0FF03E00
1F800400
3F000000
3E000000
7C000000
78000000
F8000000
F0000000
F00FFF80
F00FFF80
F00FFF80
F00FFF80
F0000780
F0000780
F8000780
78000780
7C000780
3E000780
3F000780
1F800780
0FF01F80
07FFFF80
03FFFF80
00FFFE00
003FF000
ENDCHAR
STARTCHAR H
ENCODING 72
SWIDTH 675 0
DWIDTH 27 0
BBX 21 28 4 0
BITMAP
F00078
F00078
F00078
F00078
F00078
F00078
F00078
F00078
F00078
F00078
F00078
F00078
FFFFF8
FFFFF8
FFFFF8
FFFFF8
F00078
F00078
F00078
F00078
F00078
F00078
F00078
F00078
F00078
F00078
F00078
F00078
ENDCHAR
STARTCHAR I
ENCODING 73
SWIDTH 350 0
DWIDTH 14 0
BBX 4 28 6 0
BITMAP
F0
F0
F0
F0
F0
F0
F0
F0
F0
F0
F0
F0
F0
F0
F0
F0
F0
F0
F0
F0
F0
F0
F0
F0
F0
F0
F0
F0
ENDCHAR
STARTCHAR J
ENCODING 74
SWIDTH 400 0
DWIDTH 16 0
BBX 13 29 1 -1
BITMAP
0078
0078
0078
0078
0078
0078
0078
0078
0078
0078
0078
0078
0078
0078
0078
0078
0078
0078
0078
0078
0078
0078
0078
2078
78F8
7FF0
FFF0
3FE0
0F80
ENDCHAR
STARTCHAR K
ENCODING 75
SWIDTH 650 0
DWIDTH 26 0
BBX 22 28 4 0
BITMAP
F001F0
F003F0
F007E0
F00FC0
F01F80
F03F00
F07E00
F0FC00
F1F800
F3F000
F7E000
FFC000
FF8000
FF0000
FF8000
FFC000
F7E000
F3F000
F1F800
F0FC00
F07E00
F03F00
F01F80
F00FC0
F007E0
F003F0
F001F8
F000FC
ENDCHAR
STARTCHAR L
ENCODING 76
SWIDTH 450 0
DWIDTH 18 0
BBX 14 28 4 0
BITMAP
F000
F000
F000
F000
F000
F000
F000
F000
F000
F000
F000
F000
F000
F000
F000
F000
F000
F000
F000
F000
F000
F000
F000
F000
FFFC
FFFC
FFFC
FFFC
ENDCHAR
STARTCHAR M
ENCODING 77
SWIDTH 825 0
DWIDTH 33 0
BBX 27 28 4 0
BITMAP
F00001E0
F00001E0
F80003E0
F80003E0
FC0007E0
FC0007E0
FE000FE0
FE000FE0
FF001FE0
FF001FE0
FF803FE0
F7803DE0
F7C07DE0
F3C079E0
F3E0F9E0
F1E0F1E0
F1F1F1E0
F0F1E1E0
F0FBE1E0
F07BC1E0
F07FC1E0
F03F81E0
F03F81E0
F01F01E0
F01F01E0
F00E01E0
F00E01E0
F00401E0
ENDCHAR
STARTCHAR N
ENCODING 78
SWIDTH 675 0
DWIDTH 27 0
BBX 21 28 4 0
BITMAP
F00078
F00078
F80078
FC0078
FC0078
FE0078
FF0078
FF0078
FF8078
F7C078
F3C078
F3E078
F1F078
F0F078
F0F878
F07C78
F03C78
F03E78
F01F78
F00F78
F00FF8
F007F8
F003F8
F003F8
F001F8
F000F8
F000F8
F00078
ENDCHAR
STARTCHAR O
ENCODING 79
SWIDTH 825 0
DWIDTH 33 0
BBX 28 29 4 -1
BITMAP
003FC000
00FFF000
03FFFC00
07FFFE00
0FE07F00
1F801F80
3F000FC0
3E0007C0
7C0003E0
780001E0
F80001F0
F00000F0
F00000F0
F00000F0
F00000F0
F00000F0
F00000F0
F00000F0
F80001F0
780001E0
7C0003E0
3E0007C0
3F000FC0
1F801F80
0FE07F00
07FFFE00
03FFFC00
00FFF000
003FC000
ENDCHAR
STARTCHAR P
ENCODING 80
SWIDTH 575 0
DWIDTH 23 0
BBX 19 28 4 0
BITMAP
FFF000
FFFE00
FFFF00
FFFF80
F01FC0
F007C0
F003E0
F003E0
F001E0
F003E0
F003E0
F007C0
F01FC0
FFFF80
FFFF00
FFFE00
FFF000
F00000
F00000
F00000
F00000
F00000
F00000
F00000
F00000
F00000
F00000
F00000
ENDCHAR
STARTCHAR Q
ENCODING 81
SWIDTH 850 0
DWIDTH 34 0
BBX 31 29 4 -1
BITMAP
003FE000
00FFF800
03FFFE00
07FFFF00
0FF07F80
1F800FC0
3F0007E0
3E0003E0
7C0001F0
780000F0
F80000F0
F0000078
F0000078
F0000078
F03F0078
F0FFC078
F1FFE078
F1FFF078
FBC3F8F0
7B80FCF0
7F007FF0
3F003FE0
3F001FC0
1F801FC0
0FF07FE0
07FFFFF0
03FFFDF8
00FFF0FC
003FC07E
ENDCHAR
STARTCHAR R
ENCODING 82
SWIDTH 650 0
DWIDTH 26 0
BBX 22 28 4 0
BITMAP
FFF000
FFFC00
FFFF00
FFFF80
F01FC0
F007C0
F003E0
F003E0
F001E0
F003E0
F003E0
F007C0
F01FC0
FFFF80
FFFF00
FFFC00
F7F000
F3F000
F1F800
F0FC00
F07E00
F03F00
F01F80
F00FC0
F007E0
F003F0
F001F8
F000FC
ENDCHAR
STARTCHAR S
ENCODING 83
SWIDTH 575 0
DWIDTH 23 0
BBX 21 29 2 -1
BITMAP
01FC00
07FF00
0FFF80
1FFFC0
1F07E0
3E03E0
3C01F0
3C0000
3E0000
3F0000
1FC000
1FF000
0FFC00
03FF00
00FFC0
003FE0
000FF0
0003F0
0000F8
0000F8
F80078
780078
7C00F8
7C00F8
3F03F0
1FFFE0
1FFFE0
07FF80
01FE00
ENDCHAR
STARTCHAR T
ENCODING 84
SWIDTH 550 0
DWIDTH 22 0
BBX 20 28 2 0
BITMAP
FFFFF0
FFFFF0
FFFFF0
FFFFF0
00F000
00F000
00F000
00F000
00F000
00F000
00F000
00F000
00F000
00F000
00F000
00F000
00F000
00F000
00F000
00F000
00F000
00F000
00F000
00F000
00F000
00F000
00F000
00F000
ENDCHAR
STARTCHAR U
ENCODING 85
SWIDTH 650 0
DWIDTH 26 0
BBX 21 29 4 -1
BITMAP
F00078
F00078
F00078
F00078
F00078
F00078
F00078
F00078
F00078
F00078
F00078
F00078
F00078
F00078
F00078
F00078
F00078
F00078
F00078
F00078
F00078
F800F8
7800F0
7C01F0
3F07E0
3FFFE0
1FFFC0
07FF00
01FC00
ENDCHAR
STARTCHAR V
ENCODING 86
SWIDTH 650 0
DWIDTH 26 0
BBX 23 28 2 0
BITMAP
F0001E
F0001E
F0001E
78003C
78003C
78003C
3C0078
3C0078
3C0078
1E00F0
1E00F0
1E00F0
0F01E0
0F01E0
0F01E0
0783C0
0783C0
0783C0
03C780
03C780
03C780
01EF00
01EF00
01FF00
00FE00
00FE00
00FE00
007C00
ENDCHAR
STARTCHAR W
ENCODING 87
SWIDTH 900 0
DWIDTH 36 0
BBX 35 28 2 0
BITMAP
F000E001E0
F000E001E0
F001F001E0
F001F001E0
7801F003C0
7801F003C0
7803F803C0
3C03F80780
3C03F80780
3C03F80780
3C07BC0780
1E07BC0F00
1E07BC0F00
1E07BC0F00
0F0F1E1E00
0F0F1E1E00
0F0F1E1E00
0F0F1E1E00
079E0F3C00
079E0F3C00
079E0F3C00
03DE0F7800
03DC077800
03FC07F800
03FC07F800
01FC07F000
01F803F000
01F803F000
ENDCHAR
STARTCHAR X
ENCODING 88
SWIDTH 600 0
DWIDTH 24 0
BBX 21 28 3 0
BITMAP
F800F8
7800F0
7C01F0
3C01E0
3E03C0
1E07C0
0F0780
0F8F80
078F00
07DE00
03FE00
01FC00
01FC00
00F800
00F800
01FC00
01FC00
03FE00
07DF00
078F00
0F8F80
0F0780
1F07C0
3E03E0
3C03E0
7C01F0
7800F0
F800F8
ENDCHAR
STARTCHAR Y
ENCODING 89
SWIDTH 575 0
DWIDTH 23 0
BBX 21 28 2 0
BITMAP
F80078
7800F0
7C00F0
3C01E0
3E01E0
1E03C0
1F0780
0F0780
0F8F00
078F00
07DE00
03FC00
03FC00
01F800
01F800
00F000
00F000
00F000
00F000
00F000
00F000
00F000
00F000
00F000
00F000
00F000
00F000
00F000
ENDCHAR
STARTCHAR Z
ENCODING 90
SWIDTH 625 0
DWIDTH 25 0
BBX 21 28 4 0
BITMAP
FFFFF0
FFFFE0
FFFFE0
FFFFC0
0007C0
000F80
000F80
001F00
003E00
003E00
007C00
007C00
00F800
00F800
01F000
03E000
03E000
07C000
07C000
0F8000
0F8000
1F0000
3E0000
3E0000
7FFFF8
7FFFF8
FFFFF8
FFFFF8
ENDCHAR
STARTCHAR bracketleft
ENCODING 91
SWIDTH 400 0
DWIDTH 16 0
BBX 8 36 6 -6
BITMAP
FF
FF
F0
F0
F0
F0
F0
F0
F0
F0
F0
F0
F0
F0
F0
F0
F0
F0
F0
F0
F0
F0
F0
F0
F0
F0
F0
F0
F0
F0
F0
F0
F0
F0
FF
FF
ENDCHAR
STARTCHAR backslash
ENCODING 92
SWIDTH 525 0
DWIDTH 21 0
BBX 21 34 0 -4
BITMAP
F80000
780000
7C0000
3C0000
3E0000
1E0000
1F0000
0F0000
0F8000
078000
07C000
03C000
03E000
01E000
01F000
00F000
00F800
007800
007C00
003C00
003E00
001E00
001F00
000F00
000F80
000780
0007C0
0003C0
0003E0
0001E0
0001F0
0000F0
0000F8
000078
ENDCHAR
STARTCHAR bracketright
ENCODING 93
SWIDTH 400 0
DWIDTH 16 0
BBX 8 36 2 -6
BITMAP
FF
FF
0F
0F
0F
0F
0F
0F
0F
0F
0F
0F
0F
0F
0F
0F
0F
0F
0F
0F
0F
0F
0F
0F
0F
0F
0F
0F
0F
0F
0F
0F
0F
0F
FF
FF
ENDCHAR
STARTCHAR asciicircum
ENCODING 94
SWIDTH 575 0
DWIDTH 23 0
BBX 20 9 4 20
BITMAP
00F000
01F800
03FC00
079E00
0F0F00
1E0780
3C03C0
7801E0
F000F0
ENDCHAR
STARTCHAR underscore
ENCODING 95
SWIDTH 650 0
DWIDTH 26 0
BBX 26 2 0 -8
BITMAP
FFFFFFC0
FFFFFFC0
ENDCHAR
STARTCHAR a
ENCODING 97
SWIDTH 500 0
DWIDTH 20 0
BBX 17 21 4 0
BITMAP
07F800
3FFE00
3FFF00
3F7F00
300F80
000780
000780
00FF80
07FF80
1FFF80
3FFF80
7F0780
7C0780
F80780
F00780
F00F80
F81F80
7FFF80
7FFF80
3FF780
0FC780
ENDCHAR
STARTCHAR b
ENCODING 98
SWIDTH 600 0
DWIDTH 24 0
BBX 20 28 4 0
BITMAP
F00000
F00000
F00000
F00000
F00000
F00000
F00000
F1F800
F7FE00
FFFF80
FFFFC0
FE0FC0
F803E0
F001E0
F001F0
F000F0
F000F0
F000F0
F000F0
F000F0
F001F0
F001E0
F803E0
FC0FC0
FFFFC0
FFFF80
F7FE00
F1F800
ENDCHAR
STARTCHAR c
ENCODING 99
SWIDTH 500 0
DWIDTH 20 0
BBX 16 21 4 0
BITMAP
01FC
07FF
1FFF
3FFE
3F06
7C00
7800
F800
F000
F000
F000
F000
F000
F800
7800
7C00
3F06
3FFE
1FFF
07FF
01FC
ENDCHAR
STARTCHAR d
ENCODING 100
SWIDTH 600 0
DWIDTH 24 0
BBX 20 28 4 0
BITMAP
0000F0
0000F0
0000F0
0000F0
0000F0
0000F0
0000F0
01F8F0
07FEF0
1FFFF0
3FFFF0
3F07F0
7C01F0
7800F0
F800F0
F000F0
F000F0
F000F0
F000F0
F000F0
F800F0
7800F0
7C01F0
3F07F0
3FFFF0
1FFFF0
07FEF0
01F8F0
ENDCHAR
STARTCHAR e
ENCODING 101
SWIDTH 600 0
DWIDTH 24 0
BBX 20 21 4 0
BITMAP
01FC00
07FF00
0FFF80
1FFFC0
3F07E0
7C01E0
7801F0
F800F0
F00FF0
F0FFF0
FFFFF0
FFFF80
FFF800
FF8000
780000
7C0040
3F01C0
3FFFC0
1FFFC0
07FF80
01FC00
ENDCHAR
STARTCHAR f
ENCODING 102
SWIDTH 475 0
DWIDTH 19 0
BBX 17 29 2 0
BITMAP
00FE00
03FF80
07FF80
07EF80
0F8080
0F0000
0F0000
0F0000
FFFC00
FFFC00
FFFC00
FFFC00
0F0000
0F0000
0F0000
0F0000
0F0000
0F0000
0F0000
0F0000
0F0000
0F0000
0F0000
0F0000
0F0000
0F0000
0F0000
0F0000
0F0000
ENDCHAR
STARTCHAR g
ENCODING 103
SWIDTH 575 0
DWIDTH 23 0
BBX 19 29 4 -8
BITMAP
01FFE0
07FFE0
1FFFE0
3FFFE0
3F01E0
7C01E0
7801E0
F801E0
F001E0
F001E0
F001E0
F001E0
F001E0
F803E0
7803E0
7C07E0
3F0FE0
3FFFE0
1FFFE0
07FDE0
01F9E0
0001E0
0001E0
0003E0
0C07C0
0FBFC0
0FFF80
0FFF00
03FC00
ENDCHAR
STARTCHAR h
ENCODING 104
SWIDTH 575 0
DWIDTH 23 0
BBX 19 28 4 0
BITMAP
F00000
F00000
F00000
F00000
F00000
F00000
F00000
F1F800
F7FE00
FFFF80
FFFF80
FE0FC0
F803C0
F003E0
F001E0
F001E0
F001E0
F001E0
F001E0
F001E0
F001E0
F001E0
F001E0
F001E0
F001E0
F001E0
F001E0
F001E0
ENDCHAR
STARTCHAR i
ENCODING 105
SWIDTH 325 0
DWIDTH 13 0
BBX 4 28 6 0
BITMAP
F0
F0
F0
F0
00
00
00
30
F0
F0
F0
F0
F0
F0
F0
F0
F0
F0
F0
F0
F0
F0
F0
F0
F0
F0
F0
F0
ENDCHAR
STARTCHAR j
ENCODING 106
SWIDTH 350 0
DWIDTH 14 0
BBX 12 36 0 -8
BITMAP
00F0
00F0
00F0
00F0
0000
0000
0000
0030
00F0
00F0
00F0
00F0
00F0
00F0
00F0
00F0
00F0
00F0
00F0
00F0
00F0
00F0
00F0
00F0
00F0
00F0
00F0
00F0
00F0
00F0
00F0
81F0
F7E0
FFE0
FFC0
3F00
ENDCHAR
STARTCHAR k
ENCODING 107
SWIDTH 575 0
DWIDTH 23 0
BBX 19 28 4 0
BITMAP
F00000
F00000
F00000
F00000
F00000
F00000
F00000
F007C0
F00F80
F01F00
F03E00
F07C00
F0F800
F1F000
F3E000
F7C000
FF8000
FF8000
FFC000
F7E000
F3F000
F1F800
F0FC00
F07E00
F03F00
F01F80
F00FC0
F007E0
ENDCHAR
STARTCHAR l
ENCODING 108
SWIDTH 425 0
DWIDTH 17 0
BBX 13 28 4 0
BITMAP
F000
F000
F000
F000
F000
F000
F000
F000
F000
F000
F000
F000
F000
F000
F000
F000
F000
F000
F000
F000
F000
F000
F800
7C30
7FF0
3FF8
1FF0
07C0
ENDCHAR
STARTCHAR m
ENCODING 109
SWIDTH 900 0
DWIDTH 36 0
BBX 32 21 4 0
BITMAP
F1F007C0
F7FC1FF0
FFFF7FFC
FFFFFFFC
FE1FF87E
F807E01E
F007C01F
F003C00F
F003C00F
F003C00F
F003C00F
F003C00F
F003C00F
F003C00F
F003C00F
F003C00F
F003C00F
F003C00F
F003C00F
F003C00F
F003C00F
ENDCHAR
STARTCHAR n
ENCODING 110
SWIDTH 575 0
DWIDTH 23 0
BBX 19 21 4 0
BITMAP
F1F800
F7FE00
FFFF80
FFFF80
FE0FC0
F803C0
F003E0
F001E0
F001E0
F001E0
F001E0
F001E0
F001E0
F001E0
F001E0
F001E0
F001E0
F001E0
F001E0
F001E0
F001E0
ENDCHAR
STARTCHAR o
ENCODING 111
SWIDTH 625 0
DWIDTH 25 0
BBX 21 22 4 -1
BITMAP
01FC00
07FF00
1FFFC0
3FFFE0
3F07E0
7C01F0
7800F0
F800F8
F00078
F00078
F00078
F00078
F00078
F00078
F800F8
7800F0
7C01F0
3F07E0
3FFFE0
1FFFC0
07FF00
01FC00
ENDCHAR
STARTCHAR p
ENCODING 112
SWIDTH 600 0
DWIDTH 24 0
BBX 20 29 4 -8
BITMAP
F3F800
FFFE00
FFFF80
FFFFC0
FC0FC0
F803E0
F001E0
F001F0
F000F0
F000F0
F000F0
F000F0
F000F0
F000F0
F001F0
F001E0
F803E0
FE0FC0
FFFFC0
FFFF80
F7FE00
F1F800
F00000
F00000
F00000
F00000
F00000
F00000
F00000
ENDCHAR
STARTCHAR q
ENCODING 113
SWIDTH 600 0
DWIDTH 24 0
BBX 20 29 4 -8
BITMAP
01FCF0
07FFF0
1FFFF0
3FFFF0
3F03F0
7C01F0
7800F0
F800F0
F000F0
F000F0
F000F0
F000F0
F000F0
F000F0
F800F0
7800F0
7C01F0
3F07F0
3FFFF0
1FFFF0
07FEF0
01F8F0
0000F0
0000F0
0000F0
0000F0
0000F0
0000F0
0000F0
ENDCHAR
STARTCHAR r
ENCODING 114
SWIDTH 450 0
DWIDTH 18 0
BBX 14 21 4 0
BITMAP
F1F8
F7FC
FFFC
FFF8
FE08
F800
F000
F000
F000
F000
F000
F000
F000
F000
F000
F000
F000
F000
F000
F000
F000
ENDCHAR
STARTCHAR s
ENCODING 115
SWIDTH 500 0
DWIDTH 20 0
BBX 15 21 4 0
BITMAP
0FE0
3FFC
7FFC
7EF8
F818
F000
F000
F800
7F00
7FE0
3FF8
0FFC
01FC
003E
001E
001E
603E
7EFC
FFFC
FFF8
1FE0
ENDCHAR
STARTCHAR t
ENCODING 116
SWIDTH 475 0
DWIDTH 19 0
BBX 17 27 2 0
BITMAP
030000
0F0000
0F0000
0F0000
0F0000
0F0000
FFFC00
FFFC00
FFFC00
FFFC00
0F0000
0F0000
0F0000
0F0000
0F0000
0F0000
0F0000
0F0000
0F0000
0F0000
0F0000
0F8000
07C300
07FF00
03FF80
01FF00
007C00
ENDCHAR
STARTCHAR u
ENCODING 117
SWIDTH 575 0
DWIDTH 23 0
BBX 19 21 4 0
BITMAP
F001E0
F001E0
F001E0
F001E0
F001E0
F001E0
F001E0
F001E0
F001E0
F001E0
F001E0
F001E0
F001E0
F001E0
F801E0
7803E0
7E0FE0
3FFFE0
3FFFE0
0FFDE0
03F1E0
ENDCHAR
STARTCHAR v
ENCODING 118
SWIDTH 550 0
DWIDTH 22 0
BBX 22 22 1 -1
BITMAP
F0003C
F8007C
780078
7C00F8
3C00F0
3E01F0
1E01E0
1F03E0
0F03C0
0F87C0
078780
07CF80
03CF00
03FF00
01FE00
01FE00
00FC00
00FC00
007800
007800
003000
003000
ENDCHAR
STARTCHAR w
ENCODING 119
SWIDTH 800 0
DWIDTH 32 0
BBX 29 21 2 0
BITMAP
F0000078
F0070078
F0070078
780F80F0
780F80F0
780F80F0
3C1FC1E0
3C1FC1E0
3C1FC1E0
1E3DE3C0
1E3DE3C0
1E3DE3C0
0F78F780
0F78F780
0F78F780
07F07F00
07F07F00
07F07F00
03E03E00
03E03E00
03E03E00
ENDCHAR
STARTCHAR x
ENCODING 120
SWIDTH 525 0
DWIDTH 21 0
BBX 19 21 2 0
BITMAP
F803E0
7803C0
3C0780
3E0780
1E0F00
0F1E00
0F9E00
07BC00
03F800
03F800
01F000
03F800
03F800
07BC00
0F3E00
0F1E00
1E0F00
3C0F80
3C0780
7803C0
F803E0
ENDCHAR
STARTCHAR y
ENCODING 121
SWIDTH 575 0
DWIDTH 23 0
BBX 22 29 1 -8
BITMAP
F0003C
F0003C
780078
780078
3C00F0
3C00F0
1E00F0
1E01E0
0F01E0
0F03C0
0783C0
0783C0
03C780
03C780
01EF00
01EF00
00FF00
00FE00
007E00
007C00
003C00
003C00
007800
007800
00F000
00F000
00F000
01E000
01E000
ENDCHAR
STARTCHAR z
ENCODING 122
SWIDTH 550 0
DWIDTH 22 0
BBX 18 21 3 0
BITMAP
7FFF80
7FFF00
7FFE00
7FFE00
003C00
007800
007800
00F000
01E000
01E000
03C000
078000
078000
0F0000
1E0000
1E0000
3C0000
7FFFC0
7FFFC0
FFFFC0
FFFFC0
ENDCHAR
STARTCHAR braceleft
ENCODING 123
SWIDTH 400 0
DWIDTH 16 0
BBX 12 36 2 -6
BITMAP
01F0
0780
0700
0F00
0F00
0F00
0F00
0F00
0F00
0F00
0F00
0F00
0F00
0F00
1E00
1C00
F000
F000
1C00
1E00
0F00
0F00
0F00
0F00
0F00
0F00
0F00
0F00
0F00
0F00
0F00
0F00
0F00
0700
0780
01F0
ENDCHAR
STARTCHAR bar
ENCODING 124
SWIDTH 250 0
DWIDTH 10 0
BBX 4 36 6 -6
BITMAP
F0
F0
F0
F0
F0
F0
F0
F0
F0
F0
F0
F0
F0
F0
F0
F0
F0
F0
F0
F0
F0
F0
F0
F0
F0
F0
F0
F0
F0
F0
F0
F0
F0
F0
F0
F0
ENDCHAR
STARTCHAR braceright
ENCODING 125
SWIDTH 400 0
DWIDTH 16 0
BBX 12 36 2 -6
BITMAP
F800
1E00
0E00
0F00
0F00
0F00
0F00
0F00
0F00
0F00
0F00
0F00
0F00
0F00
0780
0380
00F0
00F0
0380
0780
0F00
0F00
0F00
0F00
0F00
0F00
0F00
0F00
0F00
0F00
0F00
0F00
0F00
0E00
1E00
F800
ENDCHAR
STARTCHAR Euro
ENCODING 164
SWIDTH 750 0
DWIDTH 30 0
BBX 26 29 0 -1
BITMAP
0007F800
001FFE00
007FFF80
00FFFFC0
01FC0FC0
03F003C0
03E00180
07C00080
07800000
FFFFFF00
FFFFFE00
FFFFFE00
0F000000
0F000000
FFFFE000
FFFFE000
FFFFC000
0F000000
0F000000
0F800000
07800000
07C00000
03E00000
03F00200
01FC0F00
00FFFF00
007FFF80
001FFE00
0007F800
ENDCHAR
STARTCHAR degree
ENCODING 176
SWIDTH 400 0
DWIDTH 16 0
BBX 12 12 2 17
BITMAP
0F00
3FC0
79E0
70F0
F0F0
F0F0
F0F0
F0F0
70E0
79E0
3FC0
0F00
ENDCHAR
STARTCHAR Agrave
ENCODING 192
SWIDTH 750 0
DWIDTH 30 0
BBX 27 36 2 0
BITMAP
01F00000
00F00000
00780000
00380000
001C0000
000C0000
00000000
00000000
001F0000
001F0000
003F8000
003F8000
007FC000
007BC000
007BC000
00F1E000
00F1E000
01E0F000
01E0F000
03C07800
03C07800
03C07800
07803C00
07803C00
0F001E00
0F001E00
1FFFFF00
1FFFFF00
1FFFFF00
3FFFFF80
3C000780
780003C0
780003C0
F80001E0
F00001E0
F00001E0
ENDCHAR
STARTCHAR Acircumflex
ENCODING 194
SWIDTH 750 0
DWIDTH 30 0
BBX 27 36 2 0
BITMAP
000E0000
001F0000
003F8000
007BC000
00F1E000
00000000
00000000
00000000
001F0000
001F0000
003F8000
003F8000
007FC000
007BC000
007BC000
00F1E000
00F1E000
01E0F000
01E0F000
03C07800
03C07800
03C07800
07803C00
07803C00
0F001E00
0F001E00
1FFFFF00
1FFFFF00
1FFFFF00
3FFFFF80
3C000780
780003C0
780003C0
F80001E0
F00001E0
F00001E0
ENDCHAR
STARTCHAR Ccedilla
ENCODING 199
SWIDTH 650 0
DWIDTH 26 0
BBX 22 36 4 -8
BITMAP
003FC0
00FFF0
03FFFC
07FFF8
0FE078
1F8010
3F0000
3E0000
7C0000
780000
F80000
F00000
F00000
F00000
F00000
F00000
F00000
F00000
F80000
780000
7C0000
3E0000
3F0000
1F8010
0FE078
07FFF8
01FFFC
00FFF0
003FC0
007FC0
0001E0
0000E0
0001E0
007FE0
007FC0
007F80
ENDCHAR
STARTCHAR Egrave
ENCODING 200
SWIDTH 550 0
DWIDTH 22 0
BBX 18 36 4 0
BITMAP
3E0000
1E0000
0F0000
070000
038000
018000
000000
000000
FFFF00
FFFF00
FFFF00
FFFF00
F00000
F00000
F00000
F00000
F00000
F00000
F00000
F00000
FFFC00
FFFC00
FFFC00
FFFC00
F00000
F00000
F00000
F00000
F00000
F00000
F00000
F00000
FFFFC0
FFFFC0
FFFFC0
FFFFC0
ENDCHAR
STARTCHAR Eacute
ENCODING 201
SWIDTH 550 0
DWIDTH 22 0
BBX 18 36 4 0
BITMAP
007C00
007800
00F000
00E000
01C000
018000
000000
000000
FFFF00
FFFF00
FFFF00
FFFF00
F00000
F00000
F00000
F00000
F00000
F00000
F00000
F00000
FFFC00
FFFC00
FFFC00
FFFC00
F00000
F00000
F00000
F00000
F00000
F00000
F00000
F00000
FFFFC0
FFFFC0
FFFFC0
FFFFC0
ENDCHAR
STARTCHAR Ecircumflex
ENCODING 202
SWIDTH 550 0
DWIDTH 22 0
BBX 18 36 4 0
BITMAP
01C000
03E000
07F000
0F7800
1E3C00
000000
000000
000000
FFFF00
FFFF00
FFFF00
FFFF00
F00000
F00000
F00000
F00000
F00000
F00000
F00000
F00000
FFFC00
FFFC00
FFFC00
FFFC00
F00000
F00000
F00000
F00000
F00000
F00000
F00000
F00000
FFFFC0
FFFFC0
FFFFC0
FFFFC0
ENDCHAR
STARTCHAR Edieresis
ENCODING 203
SWIDTH 550 0
DWIDTH 22 0
BBX 18 36 4 0
BITMAP
3C3C00
3C3C00
3C3C00
3C3C00
000000
000000
000000
000000
FFFF00
FFFF00
FFFF00
FFFF00
F00000
F00000
F00000
F00000
F00000
F00000
F00000
F00000
FFFC00
FFFC00
FFFC00
FFFC00
F00000
F00000
F00000
F00000
F00000
F00000
F00000
F00000
FFFFC0
FFFFC0
FFFFC0
FFFFC0
ENDCHAR
STARTCHAR Icircumflex
ENCODING 206
SWIDTH 350 0
DWIDTH 14 0
BBX 11 36 3 0
BITMAP
0E00
1F00
3F80
7BC0
F1E0
0000
0000
0000
1E00
1E00
1E00
1E00
1E00
1E00
1E00
1E00
1E00
1E00
1E00
1E00
1E00
1E00
1E00
1E00
1E00
1E00
1E00
1E00
1E00
1E00
1E00
1E00
1E00
1E00
1E00
1E00
ENDCHAR
STARTCHAR Idieresis
ENCODING 207
SWIDTH 350 0
DWIDTH 14 0
BBX 12 36 2 0
BITMAP
F0F0
F0F0
F0F0
F0F0
0000
0000
0000
0000
0F00
0F00
0F00
0F00
0F00
0F00
0F00
0F00
0F00
0F00
0F00
0F00
0F00
0F00
0F00
0F00
0F00
0F00
0F00
0F00
0F00
0F00
0F00
0F00
0F00
0F00
0F00
0F00
ENDCHAR
STARTCHAR Ocircumflex
ENCODING 212
SWIDTH 825 0
DWIDTH 33 0
BBX 28 37 4 -1
BITMAP
000E0000
001F0000
003F8000
007BC000
00F1E000
00000000
00000000
00000000
003FC000
00FFF000
03FFFC00
07FFFE00
0FE07F00
1F801F80
3F000FC0
3E0007C0
7C0003E0
780001E0
F80001F0
F00000F0
F00000F0
F00000F0
F00000F0
F00000F0
F00000F0
F00000F0
F80001F0
780001E0
7C0003E0
3E0007C0
3F000FC0
1F801F80
0FE07F00
07FFFE00
03FFFC00
00FFF000
003FC000
ENDCHAR
STARTCHAR Ugrave
ENCODING 217
SWIDTH 650 0
DWIDTH 26 0
BBX 21 37 4 -1
BITMAP
07C000
03C000
01E000
00E000
007000
003000
000000
000000
F00078
F00078
F00078
F00078
F00078
F00078
F00078
F00078
F00078
F00078
F00078
F00078
F00078
F00078
F00078
F00078
F00078
F00078
F00078
F00078
F00078
F800F8
7800F0
7C01F0
3F07E0
3FFFE0
1FFFC0
07FF00
01FC00
ENDCHAR
STARTCHAR Ucircumflex
ENCODING 219
SWIDTH 650 0
DWIDTH 26 0
BBX 21 37 4 -1
BITMAP
007000
00F800
01FC00
03DE00
078F00
000000
000000
000000
F00078
F00078
F00078
F00078
F00078
F00078
F00078
F00078
F00078
F00078
F00078
F00078
F00078
F00078
F00078
F00078
F00078
F00078
F00078
F00078
F00078
F800F8
7800F0
7C01F0
3F07E0
3FFFE0
1FFFC0
07FF00
01FC00
ENDCHAR
STARTCHAR Udieresis
ENCODING 220
SWIDTH 650 0
DWIDTH 26 0
BBX 21 37 4 -1
BITMAP
0F0F00
0F0F00
0F0F00
0F0F00
000000
000000
000000
000000
F00078
F00078
F00078
F00078
F00078
F00078
F00078
F00078
F00078
F00078
F00078
F00078
F00078
F00078
F00078
F00078
F00078
F00078
F00078
F00078
F00078
F800F8
7800F0
7C01F0
3F07E0
3FFFE0
1FFFC0
07FF00
01FC00
ENDCHAR
STARTCHAR agrave
ENCODING 224
SWIDTH 500 0
DWIDTH 20 0
BBX 17 28 4 0
BITMAP
1F0000
0F0000
078000
038000
01C000
000000
000000
07F800
3FFE00
3FFF00
3F7F00
300F80
000780
000780
00FF80
07FF80
1FFF80
3FFF80
7F0780
7C0780
F80780
F00780
F00F80
F81F80
7FFF80
7FFF80
3FF780
0FC780
ENDCHAR
STARTCHAR acircumflex
ENCODING 226
SWIDTH 500 0
DWIDTH 20 0
BBX 17 28 4 0
BITMAP
01C000
03E000
07F000
0F7800
1E3C00
000000
000000
07F800
3FFE00
3FFF00
3F7F00
300F80
000780
000780
00FF80
07FF80
1FFF80
3FFF80
7F0780
7C0780
F80780
F00780
F00F80
F81F80
7FFF80
7FFF80
3FF780
0FC780
ENDCHAR
STARTCHAR ccedilla
ENCODING 231
SWIDTH 500 0
DWIDTH 20 0
BBX 16 27 4 -6
BITMAP
01FC
07FF
1FFF
3FFE
3F06
7C00
7800
F800
F000
F000
F000
F000
F000
F800
7800
7C00
3F06
3FFE
1FFF
07FF
01FC
001E
000E
001E
07FE
07FC
07F8
ENDCHAR
STARTCHAR egrave
ENCODING 232
SWIDTH 600 0
DWIDTH 24 0
BBX 20 28 4 0
BITMAP
0F8000
078000
03C000
01C000
00E000
000000
000000
01FC00
07FF00
0FFF80
1FFFC0
3F07E0
7C01E0
7801F0
F800F0
F00FF0
F0FFF0
FFFFF0
FFFF80
FFF800
FF8000
780000
7C0040
3F01C0
3FFFC0
1FFFC0
07FF80
01FC00
ENDCHAR
STARTCHAR eacute
ENCODING 233
SWIDTH 600 0
DWIDTH 24 0
BBX 20 28 4 0
BITMAP
003E00
003C00
007800
007000
00E000
000000
000000
01FC00
07FF00
0FFF80
1FFFC0
3F07E0
7C01E0
7801F0
F800F0
F00FF0
F0FFF0
FFFFF0
FFFF80
FFF800
FF8000
780000
7C0040
3F01C0
3FFFC0
1FFFC0
07FF80
01FC00
ENDCHAR
STARTCHAR ecircumflex
ENCODING 234
SWIDTH 600 0
DWIDTH 24 0
BBX 20 28 4 0
BITMAP
007000
00F800
01FC00
03DE00
078F00
000000
000000
01FC00
07FF00
0FFF80
1FFFC0
3F07E0
7C01E0
7801F0
F800F0
F00FF0
F0FFF0
FFFFF0
FFFF80
FFF800
FF8000
780000
7C0040
3F01C0
3FFFC0
1FFFC0
07FF80
01FC00
ENDCHAR
STARTCHAR edieresis
ENCODING 235
SWIDTH 600 0
DWIDTH 24 0
BBX 20 28 4 0
BITMAP
0F0F00
0F0F00
0F0F00
0F0F00
000000
000000
000000
01FC00
07FF00
0FFF80
1FFFC0
3F07E0
7C01E0
7801F0
F800F0
F00FF0
F0FFF0
FFFFF0
FFFF80
FFF800
FF8000
780000
7C0040
3F01C0
3FFFC0
1FFFC0
07FF80
01FC00
ENDCHAR
STARTCHAR icircumflex
ENCODING 238
SWIDTH 325 0
DWIDTH 13 0
BBX 11 28 3 0
BITMAP
0E00
1F00
3F80
7BC0
F1E0
0000
0000
0600
1E00
1E00
1E00
1E00
1E00
1E00
1E00
1E00
1E00
1E00
1E00
1E00
1E00
1E00
1E00
1E00
1E00
1E00
1E00
1E00
ENDCHAR
STARTCHAR idieresis
ENCODING 239
SWIDTH 325 0
DWIDTH 13 0
BBX 12 28 2 0
BITMAP
F0F0
F0F0
F0F0
F0F0
0000
0000
0000
0300
0F00
0F00
0F00
0F00
0F00
0F00
0F00
0F00
0F00
0F00
0F00
0F00
0F00
0F00
0F00
0F00
0F00
0F00
0F00
0F00
ENDCHAR
STARTCHAR ocircumflex
ENCODING 244
SWIDTH 625 0
DWIDTH 25 0
BBX 21 29 4 -1
BITMAP
007000
00F800
01FC00
03DE00
078F00
000000
000000
01FC00
07FF00
1FFFC0
3FFFE0
3F07E0
7C01F0
7800F0
F800F8
F00078
F00078
F00078
F00078
F00078
F00078
F800F8
7800F0
7C01F0
3F07E0
3FFFE0
1FFFC0
07FF00
01FC00
ENDCHAR
STARTCHAR ugrave
ENCODING 249
SWIDTH 575 0
DWIDTH 23 0
BBX 19 28 4 0
BITMAP
0F8000
078000
03C000
01C000
00E000
000000
000000
F001E0
F001E0
F001E0
F001E0
F001E0
F001E0
F001E0
F001E0
F001E0
F001E0
F001E0
F001E0
F001E0
F001E0
F801E0
7803E0
7E0FE0
3FFFE0
3FFFE0
0FFDE0
03F1E0
ENDCHAR
STARTCHAR ucircumflex
ENCODING 251
SWIDTH 575 0
DWIDTH 23 0
BBX 19 28 4 0
BITMAP
00E000
01F000
03F800
07BC00
0F1E00
000000
000000
F001E0
F001E0
F001E0
F001E0
F001E0
F001E0
F001E0
F001E0
F001E0
F001E0
F001E0
F001E0
F001E0
F001E0
F801E0
7803E0
7E0FE0
3FFFE0
3FFFE0
0FFDE0
03F1E0
ENDCHAR
STARTCHAR udieresis
ENCODING 252
SWIDTH 575 0
DWIDTH 23 0
BBX 19 28 4 0
BITMAP
1E1E00
1E1E00
1E1E00
1E1E00
000000
000000
000000
F001E0
F001E0
F001E0
F001E0
F001E0
F001E0
F001E0
F001E0
F001E0
F001E0
F001E0
F001E0
F001E0
F001E0
F801E0
7803E0
7E0FE0
3FFFE0
3FFFE0
0FFDE0
03F1E0
ENDCHAR
ENDFONT
